<svg width="450" height="80" viewBox="0 0 450 80" fill="none" xmlns="http://www.w3.org/2000/svg">
    <g clip-path="url(#clip0_36_1430)">
        <path d="M0 0H449.191L422.122 39.5054L449.191 79.0107H0L29.2632 39.5054L0 0Z" fill="url(#paint0_linear_36_1430)"/>
        <path d="M120.316 26.4102H93.9795V55.6734H120.316V26.4102Z" fill="white"/>
        <path d="M106.772 64.8289C102.417 64.8289 98.5548 63.8222 95.1828 61.8089C91.8588 59.7956 89.2368 56.8693 87.3168 53.0299C85.4448 49.1906 84.5078 44.5553 84.5078 39.1241C84.5078 33.6928 85.4448 29.0575 87.3168 25.2182C89.2368 21.3788 91.8588 18.4525 95.1828 16.4392C98.5548 14.4259 102.417 13.4192 106.772 13.4192C111.126 13.4192 114.965 14.4259 118.29 16.4392C121.661 18.4525 124.283 21.3788 126.156 25.2182C128.075 29.0575 129.035 33.6928 129.035 39.1241C129.035 44.5553 128.075 49.1906 126.156 53.0299C124.283 56.8693 121.661 59.7956 118.29 61.8089C114.965 63.8222 111.126 64.8289 106.772 64.8289ZM106.772 51.5551C107.849 51.5551 108.808 51.1805 109.651 50.4314C110.494 49.6822 111.149 48.3947 111.618 46.5686C112.133 44.7426 112.39 42.2611 112.39 39.1241C112.39 35.9402 112.133 33.4587 111.618 31.6795C111.149 29.8535 110.494 28.5659 109.651 27.8167C108.808 27.0676 107.849 26.693 106.772 26.693C105.695 26.693 104.735 27.0676 103.892 27.8167C103.049 28.5659 102.37 29.8535 101.855 31.6795C101.387 33.4587 101.153 35.9402 101.153 39.1241C101.153 42.2611 101.387 44.7426 101.855 46.5686C102.37 48.3947 103.049 49.6822 103.892 50.4314C104.735 51.1805 105.695 51.5551 106.772 51.5551ZM144.092 63.7052L177.662 14.5429H189.532L155.961 63.7052H144.092ZM148.797 41.231C146.316 41.231 144.092 40.716 142.125 39.6859C140.159 38.609 138.59 37.0405 137.42 34.9804C136.296 32.9203 135.734 30.4387 135.734 27.5358C135.734 24.6329 136.296 22.1748 137.42 20.1615C138.59 18.1013 140.159 16.5328 142.125 15.456C144.092 14.3791 146.316 13.8406 148.797 13.8406C151.279 13.8406 153.503 14.3791 155.469 15.456C157.436 16.5328 158.981 18.1013 160.104 20.1615C161.275 22.1748 161.86 24.6329 161.86 27.5358C161.86 30.4387 161.275 32.9203 160.104 34.9804C158.981 37.0405 157.436 38.609 155.469 39.6859C153.503 40.716 151.279 41.231 148.797 41.231ZM148.797 33.646C149.593 33.646 150.295 33.2246 150.904 32.3818C151.56 31.4922 151.887 29.8769 151.887 27.5358C151.887 25.1948 151.56 23.6028 150.904 22.7601C150.295 21.8705 149.593 21.4257 148.797 21.4257C148.048 21.4257 147.346 21.8705 146.69 22.7601C146.035 23.6028 145.707 25.1948 145.707 27.5358C145.707 29.8769 146.035 31.4922 146.69 32.3818C147.346 33.2246 148.048 33.646 148.797 33.646ZM184.826 64.4075C182.345 64.4075 180.121 63.8925 178.154 62.8624C176.188 61.7855 174.619 60.217 173.448 58.1569C172.325 56.0967 171.763 53.6152 171.763 50.7123C171.763 47.8094 172.325 45.3513 173.448 43.338C174.619 41.2778 176.188 39.7093 178.154 38.6324C180.121 37.5555 182.345 37.0171 184.826 37.0171C187.308 37.0171 189.532 37.5555 191.498 38.6324C193.465 39.7093 195.01 41.2778 196.133 43.338C197.304 45.3513 197.889 47.8094 197.889 50.7123C197.889 53.6152 197.304 56.0967 196.133 58.1569C195.01 60.217 193.465 61.7855 191.498 62.8624C189.532 63.8925 187.308 64.4075 184.826 64.4075ZM184.826 56.8225C185.622 56.8225 186.324 56.4011 186.933 55.5583C187.588 54.6687 187.916 53.0534 187.916 50.7123C187.916 48.3712 187.588 46.7793 186.933 45.9365C186.324 45.0469 185.622 44.6021 184.826 44.6021C184.077 44.6021 183.375 45.0469 182.719 45.9365C182.064 46.7793 181.736 48.3712 181.736 50.7123C181.736 53.0534 182.064 54.6687 182.719 55.5583C183.375 56.4011 184.077 56.8225 184.826 56.8225Z" fill="white"/>
        <path d="M108.611 24.9473L93.9795 42.5052H107.148L105.684 54.2105L120.316 36.6526H107.148L108.611 24.9473Z" fill="#FF0303"/>
        <path d="M195.894 36.1726C194.992 36.1726 194.161 36.0277 193.399 35.738C192.637 35.4483 191.972 35.0406 191.403 34.5148C190.845 33.9783 190.411 33.356 190.1 32.6478C189.789 31.9397 189.633 31.1618 189.633 30.3141C189.633 29.4664 189.789 28.6885 190.1 27.9803C190.411 27.2722 190.845 26.6552 191.403 26.1294C191.972 25.593 192.637 25.1799 193.399 24.8902C194.161 24.6004 194.992 24.4556 195.894 24.4556C196.806 24.4556 197.637 24.6004 198.388 24.8902C199.15 25.1799 199.81 25.593 200.368 26.1294C200.926 26.6552 201.361 27.2722 201.672 27.9803C201.994 28.6885 202.155 29.4664 202.155 30.3141C202.155 31.1618 201.994 31.945 201.672 32.6639C201.361 33.3721 200.926 33.9891 200.368 34.5148C199.81 35.0406 199.15 35.4483 198.388 35.738C197.637 36.0277 196.806 36.1726 195.894 36.1726ZM195.894 33.533C196.323 33.533 196.72 33.4579 197.085 33.3077C197.46 33.1575 197.782 32.9429 198.05 32.6639C198.329 32.3742 198.544 32.0309 198.694 31.6339C198.855 31.2369 198.936 30.7969 198.936 30.3141C198.936 29.8205 198.855 29.3806 198.694 28.9943C198.544 28.5973 198.329 28.2593 198.05 27.9803C197.782 27.6906 197.46 27.4707 197.085 27.3205C196.72 27.1702 196.323 27.0951 195.894 27.0951C195.465 27.0951 195.062 27.1702 194.687 27.3205C194.322 27.4707 194 27.6906 193.721 27.9803C193.453 28.2593 193.238 28.5973 193.077 28.9943C192.927 29.3806 192.852 29.8205 192.852 30.3141C192.852 30.7969 192.927 31.2369 193.077 31.6339C193.238 32.0309 193.453 32.3742 193.721 32.6639C194 32.9429 194.322 33.1575 194.687 33.3077C195.062 33.4579 195.465 33.533 195.894 33.533ZM207.59 29.622H212.789V32.0845H207.59V29.622ZM207.815 35.9473H204.628V24.6809H213.465V27.1434H207.815V35.9473ZM218.721 29.622H223.92V32.0845H218.721V29.622ZM218.946 35.9473H215.76V24.6809H224.596V27.1434H218.946V35.9473Z" fill="white"/>
        <path d="M76.0829 53.428C77.971 53.428 79.3066 53.6583 80.0894 54.1188C80.9184 54.5333 81.471 55.2011 81.7473 56.1221C82.0237 56.9971 82.1618 58.1715 82.1618 59.6451C82.1618 61.0728 82.0006 62.2241 81.6783 63.0991C81.4019 63.9741 80.9184 64.5728 80.2276 64.8951C79.2144 65.4478 77.7868 65.7241 75.9447 65.7241H48.9348C47.2769 65.7241 45.8493 65.1024 44.6519 63.859C43.4546 62.6155 42.8559 61.1649 42.8559 59.507C42.8559 57.0201 43.7079 54.7405 45.4118 52.6682C47.1618 50.5497 49.2572 48.7537 51.698 47.28C54.1388 45.7603 56.5796 44.2866 59.0204 42.859C61.4612 41.3853 63.5335 39.7274 65.2375 37.8853C66.9875 36.0432 67.8625 34.0859 67.8625 32.0136C67.8625 31.5991 67.7013 31.0234 67.3789 30.2866C67.0565 29.5037 66.6881 28.882 66.2737 28.4214C65.9052 27.9149 65.3065 27.4543 64.4776 27.0399C63.6487 26.6254 62.4973 26.4182 61.0237 26.4182C59.55 26.4182 58.2605 26.9708 57.1552 28.0761C56.096 29.1353 55.4973 30.1945 55.3592 31.2537L55.0829 32.8425V33.257C55.0829 34.2701 55.0368 35.03 54.9447 35.5366C54.8986 36.0432 54.6914 36.6188 54.323 37.2636C53.6322 38.3688 51.8361 38.9215 48.9348 38.9215C45.7111 38.9215 43.8 38.0465 43.2013 36.2965C42.971 35.5596 42.8559 34.3853 42.8559 32.7734C42.8559 27.9839 44.5598 23.7011 47.9677 19.9247C51.4217 16.1024 55.9118 14.1912 61.4381 14.1912C67.0105 14.1912 71.5237 16.1254 74.9776 19.9938C78.4316 23.8162 80.1585 28.1912 80.1585 33.1188C80.1585 35.7438 79.5829 38.2307 78.4316 40.5793C77.2802 42.928 75.8987 44.8162 74.2868 46.2438C70.8789 49.2833 67.8394 51.3326 65.1684 52.3919L63.4414 53.0826V53.428H76.0829Z" fill="white"/>
        <path d="M269.983 44.3206C270.14 44.0277 270.403 43.8227 270.774 43.7055C271.145 43.5883 271.614 43.5297 272.18 43.5297C272.747 43.5297 273.196 43.5786 273.528 43.6762C273.86 43.7738 274.113 43.891 274.289 44.0277C274.465 44.1644 274.602 44.3597 274.699 44.6135C274.797 44.9455 274.846 45.4532 274.846 46.1366V62.3931C274.846 62.8422 274.826 63.184 274.787 63.4183C274.768 63.6331 274.68 63.8869 274.523 64.1799C274.25 64.7071 273.489 64.9707 272.239 64.9707C270.872 64.9707 270.071 64.6095 269.837 63.8869C269.72 63.555 269.661 63.0473 269.661 62.3638V56.4178H261.899V62.3931C261.899 62.8422 261.88 63.184 261.841 63.4183C261.821 63.6331 261.733 63.8869 261.577 64.1799C261.304 64.7071 260.542 64.9707 259.292 64.9707C257.925 64.9707 257.125 64.6095 256.89 63.8869C256.773 63.555 256.715 63.0473 256.715 62.3638V46.1073C256.715 45.6582 256.724 45.3263 256.744 45.1115C256.783 44.8771 256.881 44.6135 257.037 44.3206C257.31 43.7934 258.072 43.5297 259.321 43.5297C260.688 43.5297 261.499 43.891 261.753 44.6135C261.85 44.9455 261.899 45.4532 261.899 46.1366V52.112H269.661V46.1073C269.661 45.6582 269.671 45.3263 269.69 45.1115C269.73 44.8771 269.827 44.6135 269.983 44.3206ZM289.585 45.0529L297.494 61.3972C297.826 62.0611 297.992 62.5591 297.992 62.8911C297.992 63.594 297.426 64.2287 296.293 64.795C295.629 65.1269 295.102 65.2929 294.711 65.2929C294.34 65.2929 294.028 65.205 293.774 65.0293C293.54 64.8535 293.364 64.668 293.247 64.4728C293.149 64.2775 293.003 63.9846 292.807 63.594L291.284 60.4306H283.171L281.648 63.594C281.452 63.9846 281.296 64.2677 281.179 64.4435C281.081 64.6192 280.906 64.8047 280.652 65C280.417 65.1757 280.105 65.2636 279.714 65.2636C279.343 65.2636 278.826 65.0976 278.162 64.7657C277.029 64.2189 276.463 63.594 276.463 62.8911C276.463 62.5591 276.629 62.0611 276.961 61.3972L284.87 45.0236C285.084 44.5745 285.407 44.2132 285.836 43.9398C286.285 43.6664 286.754 43.5297 287.242 43.5297C288.297 43.5297 289.078 44.0375 289.585 45.0529ZM287.213 52.0827L285.28 56.0956H289.175L287.213 52.0827ZM315.439 47.8648C315.947 48.8997 316.201 50.0519 316.201 51.3211C316.201 52.5904 315.947 53.7425 315.439 54.7775C314.931 55.7929 314.277 56.6033 313.477 57.2086C311.856 58.4584 310.176 59.0832 308.439 59.0832H304.777V62.3931C304.777 62.8422 304.758 63.184 304.719 63.4183C304.699 63.6331 304.611 63.8869 304.455 64.1799C304.182 64.7071 303.42 64.9707 302.17 64.9707C300.803 64.9707 300.003 64.6095 299.768 63.8869C299.651 63.555 299.593 63.0473 299.593 62.3638V46.1073C299.593 45.6582 299.602 45.3263 299.622 45.1115C299.661 44.8771 299.759 44.6135 299.915 44.3206C300.188 43.7934 300.95 43.5297 302.2 43.5297H308.468C310.186 43.5297 311.856 44.1546 313.477 45.4044C314.277 46.0097 314.931 46.8299 315.439 47.8648ZM308.468 53.8987C309.054 53.8987 309.63 53.6839 310.196 53.2543C310.762 52.8247 311.045 52.1803 311.045 51.3211C311.045 50.4619 310.762 49.8175 310.196 49.3879C309.63 48.9388 309.044 48.7142 308.439 48.7142H304.777V53.8987H308.468ZM333.946 47.8648C334.454 48.8997 334.708 50.0519 334.708 51.3211C334.708 52.5904 334.454 53.7425 333.946 54.7775C333.438 55.7929 332.784 56.6033 331.984 57.2086C330.363 58.4584 328.684 59.0832 326.946 59.0832H323.284V62.3931C323.284 62.8422 323.265 63.184 323.226 63.4183C323.206 63.6331 323.118 63.8869 322.962 64.1799C322.689 64.7071 321.927 64.9707 320.677 64.9707C319.31 64.9707 318.51 64.6095 318.275 63.8869C318.158 63.555 318.1 63.0473 318.1 62.3638V46.1073C318.1 45.6582 318.109 45.3263 318.129 45.1115C318.168 44.8771 318.266 44.6135 318.422 44.3206C318.695 43.7934 319.457 43.5297 320.707 43.5297H326.975C328.693 43.5297 330.363 44.1546 331.984 45.4044C332.784 46.0097 333.438 46.8299 333.946 47.8648ZM326.975 53.8987C327.561 53.8987 328.137 53.6839 328.703 53.2543C329.269 52.8247 329.552 52.1803 329.552 51.3211C329.552 50.4619 329.269 49.8175 328.703 49.3879C328.137 48.9388 327.551 48.7142 326.946 48.7142H323.284V53.8987H326.975ZM353.082 43.9398C354.039 44.6037 354.517 45.2481 354.517 45.873C354.517 46.244 354.293 46.7615 353.844 47.4254L347.517 56.8864V62.481C347.517 62.9301 347.497 63.2718 347.458 63.5062C347.439 63.721 347.351 63.9748 347.195 64.2677C347.038 64.5606 346.775 64.7657 346.404 64.8828C346.033 65 345.535 65.0586 344.91 65.0586C344.285 65.0586 343.787 65 343.416 64.8828C343.045 64.7657 342.781 64.5606 342.625 64.2677C342.469 63.9553 342.371 63.6917 342.332 63.4769C342.313 63.2425 342.303 62.8911 342.303 62.4224V56.8864L335.976 47.4254C335.527 46.7615 335.302 46.244 335.302 45.873C335.302 45.2481 335.732 44.6526 336.591 44.0863C337.45 43.5005 338.066 43.2075 338.437 43.2075C338.808 43.2075 339.1 43.2857 339.315 43.4419C339.647 43.6567 339.999 44.057 340.37 44.6428L344.91 51.907L349.45 44.6428C349.821 44.057 350.143 43.6762 350.417 43.5005C350.69 43.3052 351.002 43.2075 351.354 43.2075C351.725 43.2075 352.301 43.4516 353.082 43.9398ZM369.765 59.8448C370.565 59.8448 371.131 59.9424 371.463 60.1377C371.815 60.3135 372.049 60.5966 372.166 60.9871C372.284 61.3582 372.342 61.8561 372.342 62.481C372.342 63.0863 372.274 63.5745 372.137 63.9455C372.02 64.3165 371.815 64.5704 371.522 64.7071C371.092 64.9414 370.487 65.0586 369.706 65.0586H358.253C357.55 65.0586 356.945 64.795 356.437 64.2677C355.929 63.7405 355.676 63.1254 355.676 62.4224C355.676 61.3679 356.037 60.4013 356.759 59.5226C357.501 58.6243 358.39 57.8628 359.425 57.2379C360.46 56.5935 361.495 55.9686 362.53 55.3633C363.565 54.7384 364.443 54.0354 365.166 53.2543C365.908 52.4732 366.279 51.6433 366.279 50.7646C366.279 50.5889 366.211 50.3448 366.074 50.0323C365.937 49.7004 365.781 49.4367 365.605 49.2415C365.449 49.0267 365.195 48.8314 364.844 48.6557C364.492 48.4799 364.004 48.392 363.379 48.392C362.754 48.392 362.208 48.6264 361.739 49.095C361.29 49.5441 361.036 49.9933 360.977 50.4424L360.86 51.1161V51.2918C360.86 51.7214 360.841 52.0436 360.802 52.2584C360.782 52.4732 360.694 52.7173 360.538 52.9907C360.245 53.4594 359.483 53.6937 358.253 53.6937C356.886 53.6937 356.076 53.3227 355.822 52.5806C355.724 52.2682 355.676 51.7703 355.676 51.0868C355.676 49.056 356.398 47.2399 357.843 45.6387C359.308 44.0179 361.212 43.2075 363.555 43.2075C365.918 43.2075 367.831 44.0277 369.296 45.668C370.76 47.2887 371.493 49.1438 371.493 51.2333C371.493 52.3463 371.249 53.4008 370.76 54.3967C370.272 55.3926 369.686 56.1932 369.003 56.7985C367.558 58.0873 366.269 58.9563 365.137 59.4054L364.404 59.6983V59.8448H369.765ZM375.751 46.0195C376.317 45.2189 377.108 44.5549 378.123 44.0277C379.158 43.4809 380.35 43.2075 381.697 43.2075C383.044 43.2075 384.216 43.4712 385.212 43.9984C386.227 44.5256 387.018 45.1798 387.584 45.9609C388.17 46.742 388.639 47.6598 388.99 48.7142C389.576 50.4717 389.869 52.3366 389.869 54.3088C389.869 57.8432 389.108 60.6454 387.584 62.7153C387.018 63.4964 386.227 64.1408 385.212 64.6485C384.216 65.1562 383.054 65.4101 381.726 65.4101C380.398 65.4101 379.217 65.1562 378.182 64.6485C377.167 64.1213 376.366 63.4769 375.78 62.7153C375.214 61.9537 374.745 61.0457 374.374 59.9912C373.808 58.3119 373.525 56.408 373.525 54.2795C373.525 52.3268 373.749 50.6572 374.198 49.2708C374.667 47.8843 375.185 46.8006 375.751 46.0195ZM381.668 60.1963C383.679 60.1963 384.685 58.2826 384.685 54.4553V54.2795C384.685 50.3545 383.689 48.392 381.697 48.392C379.705 48.392 378.709 50.3643 378.709 54.3088C378.709 58.2338 379.695 60.1963 381.668 60.1963Z" fill="white"/>
        <path d="M269.193 22.1214C269.193 22.8416 269.019 23.5167 268.672 24.1469C268.337 24.777 267.804 25.285 267.071 25.6708C266.351 26.0566 265.437 26.2495 264.332 26.2495H262.075V31.4192H259.374V17.9548H264.332C265.373 17.9548 266.261 18.1348 266.994 18.4949C267.727 18.855 268.273 19.3501 268.633 19.9802C269.006 20.6104 269.193 21.3241 269.193 22.1214ZM264.216 24.0697C264.962 24.0697 265.515 23.9025 265.875 23.5682C266.235 23.2209 266.415 22.7387 266.415 22.1214C266.415 20.8097 265.682 20.1538 264.216 20.1538H262.075V24.0697H264.216ZM278.054 31.4192L275.084 26.1723H273.811V31.4192H271.11V17.9548H276.164C277.206 17.9548 278.093 18.1412 278.826 18.5142C279.559 18.8743 280.106 19.3694 280.466 19.9995C280.839 20.6168 281.025 21.3112 281.025 22.0828C281.025 22.9702 280.768 23.7739 280.253 24.4941C279.739 25.2014 278.974 25.6901 277.958 25.9601L281.179 31.4192H278.054ZM273.811 24.1469H276.068C276.801 24.1469 277.347 23.9732 277.707 23.626C278.067 23.2659 278.247 22.7708 278.247 22.1407C278.247 21.5234 278.067 21.0476 277.707 20.7132C277.347 20.366 276.801 20.1924 276.068 20.1924H273.811V24.1469ZM289.718 31.5542C288.457 31.5542 287.3 31.2584 286.245 30.6669C285.191 30.0753 284.355 29.2587 283.738 28.217C283.12 27.1625 282.812 25.973 282.812 24.6484C282.812 23.3367 283.12 22.16 283.738 21.1183C284.355 20.0638 285.191 19.2408 286.245 18.6492C287.3 18.0576 288.457 17.7619 289.718 17.7619C290.991 17.7619 292.148 18.0576 293.19 18.6492C294.244 19.2408 295.074 20.0638 295.678 21.1183C296.295 22.16 296.604 23.3367 296.604 24.6484C296.604 25.973 296.295 27.1625 295.678 28.217C295.074 29.2587 294.244 30.0753 293.19 30.6669C292.135 31.2584 290.978 31.5542 289.718 31.5542ZM289.718 29.143C290.528 29.143 291.242 28.9629 291.859 28.6028C292.476 28.2299 292.958 27.7026 293.306 27.0211C293.653 26.3395 293.826 25.5486 293.826 24.6484C293.826 23.7482 293.653 22.9637 293.306 22.295C292.958 21.6134 292.476 21.0926 291.859 20.7325C291.242 20.3724 290.528 20.1924 289.718 20.1924C288.907 20.1924 288.187 20.3724 287.557 20.7325C286.94 21.0926 286.458 21.6134 286.11 22.295C285.763 22.9637 285.59 23.7482 285.59 24.6484C285.59 25.5486 285.763 26.3395 286.11 27.0211C286.458 27.7026 286.94 28.2299 287.557 28.6028C288.187 28.9629 288.907 29.143 289.718 29.143ZM313.293 17.9548V31.4192H310.592V22.6615L306.985 31.4192H304.94L301.314 22.6615V31.4192H298.613V17.9548H301.68L305.963 27.9663L310.245 17.9548H313.293ZM322.213 31.5542C320.953 31.5542 319.795 31.2584 318.741 30.6669C317.686 30.0753 316.85 29.2587 316.233 28.217C315.616 27.1625 315.307 25.973 315.307 24.6484C315.307 23.3367 315.616 22.16 316.233 21.1183C316.85 20.0638 317.686 19.2408 318.741 18.6492C319.795 18.0576 320.953 17.7619 322.213 17.7619C323.486 17.7619 324.644 18.0576 325.685 18.6492C326.74 19.2408 327.569 20.0638 328.174 21.1183C328.791 22.16 329.099 23.3367 329.099 24.6484C329.099 25.973 328.791 27.1625 328.174 28.217C327.569 29.2587 326.74 30.0753 325.685 30.6669C324.631 31.2584 323.473 31.5542 322.213 31.5542ZM322.213 29.143C323.023 29.143 323.737 28.9629 324.354 28.6028C324.971 28.2299 325.454 27.7026 325.801 27.0211C326.148 26.3395 326.322 25.5486 326.322 24.6484C326.322 23.7482 326.148 22.9637 325.801 22.295C325.454 21.6134 324.971 21.0926 324.354 20.7325C323.737 20.3724 323.023 20.1924 322.213 20.1924C321.403 20.1924 320.683 20.3724 320.052 20.7325C319.435 21.0926 318.953 21.6134 318.606 22.295C318.259 22.9637 318.085 23.7482 318.085 24.6484C318.085 25.5486 318.259 26.3395 318.606 27.0211C318.953 27.7026 319.435 28.2299 320.052 28.6028C320.683 28.9629 321.403 29.143 322.213 29.143ZM335.049 24.6677C335.049 23.3431 335.345 22.16 335.937 21.1183C336.541 20.0638 337.358 19.2472 338.386 18.6685C339.428 18.0769 340.592 17.7812 341.878 17.7812C343.383 17.7812 344.701 18.167 345.832 18.9386C346.964 19.7102 347.755 20.7775 348.205 22.1407H345.099C344.791 21.4977 344.353 21.0154 343.788 20.6939C343.235 20.3724 342.592 20.2117 341.859 20.2117C341.074 20.2117 340.373 20.3982 339.756 20.7711C339.152 21.1312 338.676 21.6456 338.329 22.3143C337.994 22.983 337.827 23.7675 337.827 24.6677C337.827 25.555 337.994 26.3395 338.329 27.0211C338.676 27.6898 339.152 28.2106 339.756 28.5836C340.373 28.9436 341.074 29.1237 341.859 29.1237C342.592 29.1237 343.235 28.9629 343.788 28.6414C344.353 28.3071 344.791 27.8184 345.099 27.1754H348.205C347.755 28.5514 346.964 29.6252 345.832 30.3968C344.714 31.1556 343.395 31.5349 341.878 31.5349C340.592 31.5349 339.428 31.2456 338.386 30.6669C337.358 30.0753 336.541 29.2587 335.937 28.217C335.345 27.1754 335.049 25.9923 335.049 24.6677ZM356.762 31.5542C355.501 31.5542 354.344 31.2584 353.289 30.6669C352.235 30.0753 351.399 29.2587 350.782 28.217C350.164 27.1625 349.856 25.973 349.856 24.6484C349.856 23.3367 350.164 22.16 350.782 21.1183C351.399 20.0638 352.235 19.2408 353.289 18.6492C354.344 18.0576 355.501 17.7619 356.762 17.7619C358.035 17.7619 359.192 18.0576 360.234 18.6492C361.288 19.2408 362.118 20.0638 362.722 21.1183C363.34 22.16 363.648 23.3367 363.648 24.6484C363.648 25.973 363.34 27.1625 362.722 28.217C362.118 29.2587 361.288 30.0753 360.234 30.6669C359.179 31.2584 358.022 31.5542 356.762 31.5542ZM356.762 29.143C357.572 29.143 358.286 28.9629 358.903 28.6028C359.52 28.2299 360.002 27.7026 360.35 27.0211C360.697 26.3395 360.87 25.5486 360.87 24.6484C360.87 23.7482 360.697 22.9637 360.35 22.295C360.002 21.6134 359.52 21.0926 358.903 20.7325C358.286 20.3724 357.572 20.1924 356.762 20.1924C355.951 20.1924 355.231 20.3724 354.601 20.7325C353.984 21.0926 353.502 21.6134 353.154 22.295C352.807 22.9637 352.634 23.7482 352.634 24.6484C352.634 25.5486 352.807 26.3395 353.154 27.0211C353.502 27.7026 353.984 28.2299 354.601 28.6028C355.231 28.9629 355.951 29.143 356.762 29.143ZM370.364 17.9548C371.779 17.9548 373.02 18.2313 374.087 18.7842C375.167 19.3372 375.997 20.1281 376.576 21.1569C377.167 22.1728 377.463 23.356 377.463 24.7063C377.463 26.0566 377.167 27.2397 376.576 28.2556C375.997 29.2587 375.167 30.0367 374.087 30.5897C373.02 31.1427 371.779 31.4192 370.364 31.4192H365.657V17.9548H370.364ZM370.268 29.1237C371.682 29.1237 372.775 28.7379 373.547 27.9663C374.319 27.1947 374.704 26.108 374.704 24.7063C374.704 23.3045 374.319 22.2114 373.547 21.427C372.775 20.6296 371.682 20.231 370.268 20.231H368.358V29.1237H370.268ZM382.185 20.1345V23.5103H386.718V25.6515H382.185V29.2201H387.297V31.4192H379.484V17.9355H387.297V20.1345H382.185Z" fill="black"/>
    </g>
    <defs>
        <linearGradient id="paint0_linear_36_1430" x1="161.379" y1="157.523" x2="302.363" y2="20.7196" gradientUnits="userSpaceOnUse">
            <stop stop-color="#FF0202"/>
            <stop offset="1" stop-color="#FF9A02"/>
        </linearGradient>
        <clipPath id="clip0_36_1430">
            <rect width="450" height="80" fill="white"/>
        </clipPath>
    </defs>
</svg>
